  0
SECTION
  2
HEADER
  9
$INSBASE
 10
0.0000
 20
0.0000
  9
$EXTMIN
 10
-187.374369
 20
-187.374369
  9
$EXTMAX
 10
187.374369
 20
187.374369
  9
$LIMMIN
 10
-187.374369
 20
-187.374369
  9
$LIMMAX
 10
187.374369
 20
187.374369
  9
$TEXTSTYLE
  7
STANDARD
  9
$CLAYER
  8
default
  0
ENDSEC
  0
SECTION
  2
TABLES
  0
TABLE
  2
LTYPE
 70
4948253
  0
LTYPE
  2
CONTINUOUS
 70
    64
  3
Solid line
 72
    65
 73
     0
 40
0.0
  0
ENDTAB
  0
TABLE
  2
LAYER
 70
     5
  0
LAYER
  2
default
 70
    64
 62
     7
  6
CONTINUOUS
  0
LAYER
  2
layer1
 70
    64
 62
     7
  6
CONTINUOUS
  0
ENDTAB
  0
TABLE
  2
STYLE
 70
     1
  0
STYLE
  2
STANDARD
 70
     0
 40
0.0
 41
1.0
 50
0.0
 71
     0
 42
0.2
  3
txt
  4

  0
ENDTAB
  0
TABLE
  2
VIEW
 70
     0
  0
ENDTAB
  0
ENDSEC
  0
SECTION
  2
BLOCKS
  0
ENDSEC
  0
SECTION
  2
ENTITIES
  0
LINE
  8
layer1
 10
-21.999619
 20
82.103695
 30
0.0
 11
-24.587809
 21
91.762953
 31
0.0
  0
LINE
  8
layer1
 10
-82.103695
 20
-21.999619
 30
0.0
 11
-91.762953
 21
-24.587809
 31
0.0
  0
LINE
  8
layer1
 10
21.999619
 20
-82.103695
 30
0.0
 11
24.587809
 21
-91.762953
 31
0.0
  0
LINE
  8
layer1
 10
82.103695
 20
21.999619
 30
0.0
 11
91.762953
 21
24.587809
 31
0.0
  0
LINE
  8
default
 10
101.422212
 20
-27.176000
 30
0.0
 11
92.387953
 21
-38.268343
 31
0.0
  0
LINE
  8
default
 10
92.387953
 20
38.268343
 30
0.0
 11
101.422212
 21
27.176000
 31
0.0
  0
LINE
  8
default
 10
74.246212
 20
74.246212
 30
0.0
 11
79.335334
 21
60.876143
 31
0.0
  0
LINE
  8
default
 10
13.052619
 20
99.144486
 30
0.0
 11
27.176000
 21
101.422212
 31
0.0
  0
LINE
  8
default
 10
-27.176000
 20
101.422212
 30
0.0
 11
-13.052619
 21
99.144486
 31
0.0
  0
LINE
  8
default
 10
-79.335334
 20
60.876143
 30
0.0
 11
-74.246212
 21
74.246212
 31
0.0
  0
LINE
  8
default
 10
-101.422212
 20
27.176000
 30
0.0
 11
-92.387953
 21
38.268343
 31
0.0
  0
LINE
  8
default
 10
-92.387953
 20
-38.268343
 30
0.0
 11
-101.422212
 21
-27.176000
 31
0.0
  0
LINE
  8
default
 10
-74.246212
 20
-74.246212
 30
0.0
 11
-79.335334
 21
-60.876143
 31
0.0
  0
LINE
  8
default
 10
-13.052619
 20
-99.144486
 30
0.0
 11
-27.176000
 21
-101.422212
 31
0.0
  0
LINE
  8
default
 10
27.176000
 20
-101.422212
 30
0.0
 11
13.052619
 21
-99.144486
 31
0.0
  0
LINE
  8
default
 10
79.335334
 20
-60.876143
 30
0.0
 11
74.246212
 21
-74.246212
 31
0.0
  0
LINE
  8
default
 10
101.422212
 20
-27.176000
 30
0.0
 11
137.427806
 21
-26.713259
 31
0.0
  0
LINE
  8
default
 10
101.422212
 20
27.176000
 30
0.0
 11
137.427806
 21
26.713259
 31
0.0
  0
LINE
  8
default
 10
27.176000
 20
101.422212
 30
0.0
 11
45.579542
 21
132.372601
 31
0.0
  0
LINE
  8
default
 10
74.246212
 20
74.246212
 30
0.0
 11
91.848264
 21
105.659341
 31
0.0
  0
LINE
  8
default
 10
-74.246212
 20
74.246212
 30
0.0
 11
-91.848264
 21
105.659341
 31
0.0
  0
LINE
  8
default
 10
-27.176000
 20
101.422212
 30
0.0
 11
-45.579542
 21
132.372601
 31
0.0
  0
LINE
  8
default
 10
-101.422212
 20
-27.176000
 30
0.0
 11
-137.427806
 21
-26.713259
 31
0.0
  0
LINE
  8
default
 10
-101.422212
 20
27.176000
 30
0.0
 11
-137.427806
 21
26.713259
 31
0.0
  0
LINE
  8
default
 10
-27.176000
 20
-101.422212
 30
0.0
 11
-45.579542
 21
-132.372601
 31
0.0
  0
LINE
  8
default
 10
-74.246212
 20
-74.246212
 30
0.0
 11
-91.848264
 21
-105.659341
 31
0.0
  0
LINE
  8
default
 10
74.246212
 20
-74.246212
 30
0.0
 11
91.848264
 21
-105.659341
 31
0.0
  0
LINE
  8
default
 10
27.176000
 20
-101.422212
 30
0.0
 11
45.579542
 21
-132.372601
 31
0.0
  0
LINE
  8
default
 10
121.243557
 20
70.000000
 30
0.0
 11
90.932667
 21
52.500000
 31
0.0
  0
LINE
  8
default
 10
-0.000000
 20
140.000000
 30
0.0
 11
0.000000
 21
105.000000
 31
0.0
  0
LINE
  8
default
 10
-121.243557
 20
70.000000
 30
0.0
 11
-90.932667
 21
52.500000
 31
0.0
  0
LINE
  8
default
 10
-121.243557
 20
-70.000000
 30
0.0
 11
-90.932667
 21
-52.500000
 31
0.0
  0
LINE
  8
default
 10
0.000000
 20
-140.000000
 30
0.0
 11
-0.000000
 21
-105.000000
 31
0.0
  0
LINE
  8
default
 10
121.243557
 20
-70.000000
 30
0.0
 11
90.932667
 21
-52.500000
 31
0.0
  0
ARC
  8
layer1
 10
0.000000
 20
-0.000000
 30
0.000000
 40
84.999999
 50
105.000000
 51
195.000000
  0
ARC
  8
layer1
 10
0.000000
 20
0.000000
 30
0.000000
 40
84.999999
 50
195.000000
 51
285.000000
  0
ARC
  8
layer1
 10
-0.000000
 20
0.000000
 30
0.000000
 40
84.999999
 50
285.000000
 51
15.000000
  0
ARC
  8
layer1
 10
-0.000000
 20
-0.000000
 30
0.000000
 40
84.999999
 50
15.000000
 51
105.000000
  0
ARC
  8
layer1
 10
0.000000
 20
0.000000
 30
0.000000
 40
95.000000
 50
105.000000
 51
195.000000
  0
ARC
  8
layer1
 10
0.000000
 20
0.000000
 30
0.000000
 40
95.000000
 50
195.000000
 51
285.000000
  0
ARC
  8
layer1
 10
-0.000000
 20
0.000000
 30
0.000000
 40
95.000000
 50
285.000000
 51
15.000000
  0
ARC
  8
layer1
 10
0.000000
 20
-0.000000
 30
0.000000
 40
95.000000
 50
15.000000
 51
105.000000
  0
ARC
  8
default
 10
0.000000
 20
0.000000
 30
0.000000
 40
99.999999
 50
337.500000
 51
22.500000
  0
ARC
  8
default
 10
0.000000
 20
-0.000000
 30
0.000000
 40
100.000000
 50
37.500000
 51
82.500000
  0
ARC
  8
default
 10
-0.000000
 20
-0.000000
 30
0.000000
 40
100.000000
 50
97.500000
 51
142.500000
  0
ARC
  8
default
 10
-0.000000
 20
0.000000
 30
0.000000
 40
99.999999
 50
157.500000
 51
202.500000
  0
ARC
  8
default
 10
-0.000000
 20
0.000000
 30
0.000000
 40
100.000000
 50
217.500000
 51
262.500000
  0
ARC
  8
default
 10
0.000000
 20
0.000000
 30
0.000000
 40
100.000000
 50
277.500000
 51
322.500000
  0
ARC
  8
default
 10
0.000001
 20
-0.000002
 30
0.000000
 40
105.000000
 50
15.000001
 51
30.000001
  0
ARC
  8
default
 10
-0.000000
 20
0.000001
 30
0.000000
 40
104.999999
 50
29.999999
 51
44.999999
  0
ARC
  8
default
 10
0.000001
 20
-0.000001
 30
0.000000
 40
105.000001
 50
75.000001
 51
90.000001
  0
ARC
  8
default
 10
-0.000001
 20
-0.000001
 30
0.000000
 40
105.000001
 50
89.999999
 51
104.999999
  0
ARC
  8
default
 10
0.000000
 20
0.000001
 30
0.000000
 40
104.999999
 50
135.000001
 51
150.000001
  0
ARC
  8
default
 10
-0.000001
 20
-0.000002
 30
0.000000
 40
105.000000
 50
149.999999
 51
164.999999
  0
ARC
  8
default
 10
-0.000001
 20
0.000002
 30
0.000000
 40
105.000000
 50
195.000001
 51
210.000001
  0
ARC
  8
default
 10
0.000000
 20
-0.000001
 30
0.000000
 40
104.999999
 50
209.999999
 51
224.999999
  0
ARC
  8
default
 10
-0.000001
 20
0.000001
 30
0.000000
 40
105.000001
 50
255.000001
 51
270.000001
  0
ARC
  8
default
 10
0.000001
 20
0.000001
 30
0.000000
 40
105.000001
 50
269.999999
 51
284.999999
  0
ARC
  8
default
 10
-0.000000
 20
-0.000001
 30
0.000000
 40
104.999999
 50
315.000001
 51
330.000001
  0
ARC
  8
default
 10
0.000001
 20
0.000002
 30
0.000000
 40
105.000000
 50
329.999999
 51
344.999999
  0
ARC
  8
default
 10
-0.000001
 20
0.000000
 30
0.000000
 40
140.000001
 50
11.000000
 51
30.000000
  0
ARC
  8
default
 10
0.000001
 20
-0.000002
 30
0.000000
 40
140.000000
 50
30.000001
 51
49.000001
  0
ARC
  8
default
 10
0.000001
 20
-0.000001
 30
0.000000
 40
140.000001
 50
71.000001
 51
90.000001
  0
ARC
  8
default
 10
-0.000001
 20
-0.000001
 30
0.000000
 40
140.000001
 50
89.999999
 51
108.999999
  0
ARC
  8
default
 10
-0.000001
 20
-0.000002
 30
0.000000
 40
140.000000
 50
130.999999
 51
149.999999
  0
ARC
  8
default
 10
0.000001
 20
0.000000
 30
0.000000
 40
140.000001
 50
150.000000
 51
169.000000
  0
ARC
  8
default
 10
0.000001
 20
-0.000000
 30
0.000000
 40
140.000001
 50
191.000000
 51
210.000000
  0
ARC
  8
default
 10
-0.000001
 20
0.000002
 30
0.000000
 40
140.000000
 50
210.000001
 51
229.000001
  0
ARC
  8
default
 10
-0.000001
 20
0.000001
 30
0.000000
 40
140.000001
 50
251.000001
 51
270.000001
  0
ARC
  8
default
 10
0.000001
 20
0.000001
 30
0.000000
 40
140.000001
 50
269.999999
 51
288.999999
  0
ARC
  8
default
 10
0.000001
 20
0.000002
 30
0.000000
 40
140.000000
 50
310.999999
 51
329.999999
  0
ARC
  8
default
 10
-0.000001
 20
-0.000000
 30
0.000000
 40
140.000001
 50
330.000000
 51
349.000000
  0
ARC
  8
default
 10
0.000000
 20
0.000000
 30
0.000000
 40
175.000000
 50
360.000000
 51
180.000000
  0
ARC
  8
default
 10
0.000000
 20
0.000000
 30
0.000000
 40
175.000000
 50
180.000000
 51
360.000000
  0
ENDSEC
  0
EOF
