  0
SECTION
  2
HEADER
  9
$INSBASE
 10
0.0000
 20
0.0000
  9
$EXTMIN
 10
-85.656854
 20
-85.656854
  9
$EXTMAX
 10
85.656854
 20
85.656854
  9
$LIMMIN
 10
-85.656854
 20
-85.656854
  9
$LIMMAX
 10
85.656854
 20
85.656854
  9
$TEXTSTYLE
  7
STANDARD
  9
$CLAYER
  8
default
  0
ENDSEC
  0
SECTION
  2
TABLES
  0
TABLE
  2
LTYPE
 70
4948253
  0
LTYPE
  2
CONTINUOUS
 70
    64
  3
Solid line
 72
    65
 73
     0
 40
0.0
  0
ENDTAB
  0
TABLE
  2
LAYER
 70
     5
  0
LAYER
  2
default
 70
    64
 62
     7
  6
CONTINUOUS
  0
LAYER
  2
layer1
 70
    64
 62
     7
  6
CONTINUOUS
  0
ENDTAB
  0
TABLE
  2
STYLE
 70
     1
  0
STYLE
  2
STANDARD
 70
     0
 40
0.0
 41
1.0
 50
0.0
 71
     0
 42
0.2
  3
txt
  4

  0
ENDTAB
  0
TABLE
  2
VIEW
 70
     0
  0
ENDTAB
  0
ENDSEC
  0
SECTION
  2
BLOCKS
  0
ENDSEC
  0
SECTION
  2
ENTITIES
  0
LINE
  8
default
 10
-13.680806
 20
37.587705
 30
0.0
 11
-13.680806
 21
42.587705
 31
0.0
  0
LINE
  8
default
 10
-13.680806
 20
42.587705
 30
0.0
 11
-6.500000
 21
49.575700
 31
0.0
  0
LINE
  8
default
 10
-6.500000
 20
49.575700
 30
0.0
 11
-6.500000
 21
64.674183
 31
0.0
  0
LINE
  8
default
 10
6.500000
 20
64.674183
 30
0.0
 11
6.500000
 21
49.575700
 31
0.0
  0
LINE
  8
default
 10
6.500000
 20
49.575700
 30
0.0
 11
13.680806
 21
42.587705
 31
0.0
  0
LINE
  8
default
 10
13.680806
 20
42.587705
 30
0.0
 11
13.680806
 21
37.587705
 31
0.0
  0
LINE
  8
default
 10
-25.711504
 20
-30.641778
 30
0.0
 11
-30.041631
 21
-33.141778
 31
0.0
  0
LINE
  8
default
 10
-30.041631
 20
-33.141778
 30
0.0
 11
-39.683815
 21
-30.417015
 31
0.0
  0
LINE
  8
default
 10
-39.683815
 20
-30.417015
 30
0.0
 11
-52.759486
 21
-37.966257
 31
0.0
  0
LINE
  8
default
 10
-59.259486
 20
-26.707927
 30
0.0
 11
-46.183815
 21
-19.158685
 31
0.0
  0
LINE
  8
default
 10
-46.183815
 20
-19.158685
 30
0.0
 11
-43.722437
 21
-9.445927
 31
0.0
  0
LINE
  8
default
 10
-43.722437
 20
-9.445927
 30
0.0
 11
-39.392310
 21
-6.945927
 31
0.0
  0
LINE
  8
default
 10
39.392310
 20
-6.945927
 30
0.0
 11
43.722437
 21
-9.445927
 31
0.0
  0
LINE
  8
default
 10
43.722437
 20
-9.445927
 30
0.0
 11
46.183815
 21
-19.158685
 31
0.0
  0
LINE
  8
default
 10
46.183815
 20
-19.158685
 30
0.0
 11
59.259486
 21
-26.707927
 31
0.0
  0
LINE
  8
default
 10
52.759486
 20
-37.966257
 30
0.0
 11
39.683815
 21
-30.417015
 31
0.0
  0
LINE
  8
default
 10
39.683815
 20
-30.417015
 30
0.0
 11
30.041631
 21
-33.141778
 31
0.0
  0
LINE
  8
default
 10
30.041631
 20
-33.141778
 30
0.0
 11
25.711504
 21
-30.641778
 31
0.0
  0
LINE
  8
layer1
 10
30.000000
 20
0.000000
 30
0.0
 11
35.000000
 21
0.000000
 31
0.0
  0
LINE
  8
default
 10
-34.641016
 20
20.000000
 30
0.0
 11
-56.291651
 21
32.500000
 31
0.0
  0
LINE
  8
default
 10
-0.000000
 20
-65.000000
 30
0.0
 11
-0.000000
 21
-40.000000
 31
0.0
  0
LINE
  8
layer1
 10
-30.000000
 20
-0.000000
 30
0.0
 11
-35.000000
 21
-0.000000
 31
0.0
  0
LINE
  8
default
 10
34.641016
 20
20.000000
 30
0.0
 11
56.291651
 21
32.500000
 31
0.0
  0
ARC
  8
default
 10
0.000000
 20
-0.000001
 30
0.000000
 40
40.000001
 50
70.000000
 51
110.000000
  0
ARC
  8
default
 10
-0.000001
 20
0.000001
 30
0.000000
 40
64.999999
 50
95.739170
 51
150.000000
  0
ARC
  8
default
 10
0.000000
 20
-0.000000
 30
0.000000
 40
80.000000
 50
30.000000
 51
150.000000
  0
ARC
  8
default
 10
0.000001
 20
0.000001
 30
0.000000
 40
64.999999
 50
30.000000
 51
84.260830
  0
ARC
  8
default
 10
0.000000
 20
0.000001
 30
0.000000
 40
65.000001
 50
215.739171
 51
270.000000
  0
ARC
  8
default
 10
0.000000
 20
0.000000
 30
0.000000
 40
80.000000
 50
150.000000
 51
270.000000
  0
ARC
  8
default
 10
-0.000000
 20
-0.000001
 30
0.000000
 40
65.000000
 50
149.999999
 51
204.260829
  0
ARC
  8
default
 10
0.000000
 20
-0.000001
 30
0.000000
 40
65.000000
 50
335.739171
 51
30.000001
  0
ARC
  8
default
 10
-0.000000
 20
0.000000
 30
0.000000
 40
80.000000
 50
270.000000
 51
30.000000
  0
ARC
  8
default
 10
-0.000000
 20
0.000001
 30
0.000000
 40
65.000001
 50
270.000000
 51
324.260829
  0
ARC
  8
default
 10
0.000001
 20
0.000001
 30
0.000000
 40
40.000001
 50
180.000001
 51
190.000001
  0
ARC
  8
default
 10
-0.000000
 20
-0.000000
 30
0.000000
 40
40.000000
 50
0.000000
 51
30.000000
  0
ARC
  8
layer1
 10
0.000000
 20
0.000000
 30
0.000000
 40
35.000000
 50
0.000000
 51
180.000000
  0
ARC
  8
layer1
 10
0.000000
 20
0.000000
 30
0.000000
 40
30.000000
 50
0.000000
 51
180.000000
  0
ARC
  8
layer1
 10
0.000000
 20
0.000000
 30
0.000000
 40
35.000000
 50
180.000000
 51
0.000000
  0
ARC
  8
layer1
 10
0.000000
 20
0.000000
 30
0.000000
 40
30.000000
 50
180.000000
 51
0.000000
  0
ARC
  8
default
 10
-0.000001
 20
-0.000000
 30
0.000000
 40
40.000001
 50
30.000000
 51
69.999999
  0
ARC
  8
default
 10
0.000001
 20
-0.000000
 30
0.000000
 40
40.000001
 50
110.000001
 51
150.000000
  0
ARC
  8
default
 10
-0.000000
 20
-0.000000
 30
0.000000
 40
40.000000
 50
149.999999
 51
179.999999
  0
ARC
  8
default
 10
0.000000
 20
-0.000000
 30
0.000000
 40
40.000000
 50
189.999999
 51
209.999999
  0
ARC
  8
default
 10
0.000001
 20
0.000001
 30
0.000000
 40
40.000001
 50
210.000000
 51
230.000000
  0
ARC
  8
default
 10
0.000000
 20
0.000000
 30
0.000000
 40
40.000000
 50
230.000001
 51
270.000000
  0
ARC
  8
default
 10
-0.000000
 20
0.000000
 30
0.000000
 40
40.000000
 50
270.000000
 51
309.999999
  0
ARC
  8
default
 10
0.000001
 20
-0.000000
 30
0.000000
 40
39.999999
 50
309.999999
 51
330.000000
  0
ARC
  8
default
 10
0.000002
 20
-0.000001
 30
0.000000
 40
39.999998
 50
330.000000
 51
350.000001
  0
ARC
  8
default
 10
0.000001
 20
0.000001
 30
0.000000
 40
39.999999
 50
349.999999
 51
359.999999
  0
ENDSEC
  0
EOF
